<svg width="254" height="53" viewBox="0 0 254 53" fill="none" xmlns="http://www.w3.org/2000/svg">
<rect x="36.3427" y="10.0952" width="4.54285" height="35.3333" rx="2.27143" fill="#00FF66"/>
<rect x="12.1142" y="10.0952" width="4.54285" height="35.3333" rx="2.27143" fill="#00FF66"/>
<rect x="48.4572" y="21.4524" width="4.54285" height="12.619" rx="2.27143" fill="#00FF66"/>
<rect y="20.1905" width="4.54285" height="13.881" rx="2.27143" fill="#00FF66"/>
<rect x="24.2285" width="4.54285" height="53" rx="2.27143" fill="#00FF66"/>
<path d="M95.912 16.424C94.0347 14.224 91.5413 13.124 88.432 13.124C86.232 13.124 84.5013 13.608 83.24 14.576C81.9787 15.544 81.348 16.8933 81.348 18.624C81.348 20.912 82.9173 22.584 86.056 23.64L92.436 25.752C95.0173 26.6027 96.88 27.7467 98.024 29.184C99.1973 30.592 99.784 32.3227 99.784 34.376C99.784 37.192 98.7427 39.4067 96.66 41.02C94.5773 42.6333 91.732 43.44 88.124 43.44C85.484 43.44 83.152 42.9707 81.128 42.032C79.1333 41.0933 77.52 39.7293 76.288 37.94C76.1707 37.7053 76.112 37.5587 76.112 37.5C76.112 37.2947 76.2587 37.0893 76.552 36.884L78.136 35.784C78.4 35.608 78.6053 35.52 78.752 35.52C78.928 35.52 79.0893 35.608 79.236 35.784C80.4973 37.3973 81.744 38.5413 82.976 39.216C84.208 39.8907 85.8653 40.228 87.948 40.228C90.412 40.228 92.3187 39.788 93.668 38.908C95.0467 38.028 95.736 36.664 95.736 34.816C95.736 33.672 95.3693 32.704 94.636 31.912C93.932 31.0907 92.6413 30.328 90.764 29.624L84.076 27.336C81.7587 26.544 80.0427 25.4147 78.928 23.948C77.8427 22.452 77.3 20.8093 77.3 19.02C77.3 17.2013 77.7547 15.6027 78.664 14.224C79.6027 12.8453 80.908 11.7893 82.58 11.056C84.2813 10.2933 86.232 9.912 88.432 9.912C90.5733 9.912 92.5093 10.2933 94.24 11.056C96 11.8187 97.496 12.8893 98.728 14.268C98.8747 14.4147 98.948 14.5613 98.948 14.708C98.948 14.8547 98.8747 14.9867 98.728 15.104L96.704 16.688C96.616 16.776 96.528 16.82 96.44 16.82C96.352 16.82 96.176 16.688 95.912 16.424ZM110.489 22.408C110.255 22.408 110.137 22.54 110.137 22.804V36.752C110.137 38.072 110.357 38.9813 110.797 39.48C111.237 39.9787 111.956 40.228 112.953 40.228H115.989C116.312 40.228 116.473 40.3893 116.473 40.712L116.429 42.208C116.429 42.5013 116.253 42.692 115.901 42.78C115.139 42.9267 113.76 43 111.765 43C109.917 43 108.568 42.5747 107.717 41.724C106.867 40.844 106.441 39.4653 106.441 37.588V22.892C106.441 22.5693 106.295 22.408 106.001 22.408H102.481C102.159 22.408 101.997 22.2613 101.997 21.968V20.12C101.997 19.8267 102.144 19.68 102.437 19.68H106.177C106.383 19.68 106.485 19.5627 106.485 19.328L106.969 12.332C106.969 11.9507 107.131 11.76 107.453 11.76H109.653C110.005 11.76 110.181 11.9653 110.181 12.376V19.328C110.181 19.5627 110.299 19.68 110.533 19.68H116.077C116.4 19.68 116.561 19.812 116.561 20.076V21.968C116.561 22.2613 116.4 22.408 116.077 22.408H110.489ZM130.554 43.44C128.354 43.44 126.404 42.9413 124.702 41.944C123.03 40.9173 121.725 39.4947 120.786 37.676C119.877 35.8573 119.422 33.7893 119.422 31.472C119.422 29.096 119.892 26.984 120.83 25.136C121.798 23.288 123.118 21.8507 124.79 20.824C126.492 19.768 128.428 19.24 130.598 19.24C132.769 19.24 134.69 19.768 136.362 20.824C138.064 21.8507 139.369 23.288 140.278 25.136C141.217 26.984 141.686 29.0813 141.686 31.428C141.686 33.7453 141.217 35.8133 140.278 37.632C139.34 39.4507 138.02 40.8733 136.318 41.9C134.646 42.9267 132.725 43.44 130.554 43.44ZM130.642 40.668C132.93 40.668 134.705 39.8467 135.966 38.204C137.257 36.532 137.902 34.244 137.902 31.34C137.902 28.4653 137.242 26.192 135.922 24.52C134.632 22.8187 132.857 21.968 130.598 21.968C128.31 21.968 126.506 22.8187 125.186 24.52C123.866 26.192 123.206 28.4653 123.206 31.34C123.206 34.2147 123.866 36.488 125.186 38.16C126.506 39.832 128.325 40.668 130.642 40.668ZM147.742 43C147.332 43 147.126 42.8093 147.126 42.428V20.252C147.126 19.8707 147.288 19.68 147.61 19.68H150.162C150.485 19.68 150.646 19.8413 150.646 20.164V23.024C150.646 23.2 150.69 23.3027 150.778 23.332C150.896 23.3613 151.013 23.3027 151.13 23.156C153.36 20.5453 155.633 19.24 157.95 19.24C158.977 19.24 159.49 19.4307 159.49 19.812V22.452C159.49 22.7453 159.358 22.8627 159.094 22.804C158.566 22.716 157.906 22.672 157.114 22.672C156.264 22.672 155.34 22.9213 154.342 23.42C153.345 23.9187 152.509 24.564 151.834 25.356C151.16 26.148 150.822 26.9547 150.822 27.776V42.34C150.822 42.78 150.602 43 150.162 43H147.742ZM164.586 43C164.175 43 163.97 42.8093 163.97 42.428V20.252C163.97 19.8707 164.131 19.68 164.454 19.68H167.094C167.387 19.68 167.534 19.8413 167.534 20.164V22.716C167.534 23.068 167.681 23.112 167.974 22.848C169.558 21.5573 170.907 20.6333 172.022 20.076C173.137 19.5187 174.383 19.24 175.762 19.24C177.405 19.24 178.754 19.6067 179.81 20.34C180.895 21.0733 181.629 21.9973 182.01 23.112C182.069 23.2 182.127 23.244 182.186 23.244C182.274 23.244 182.421 23.1707 182.626 23.024C184.151 21.7333 185.515 20.78 186.718 20.164C187.95 19.548 189.241 19.24 190.59 19.24C192.702 19.24 194.345 19.8413 195.518 21.044C196.721 22.2467 197.322 23.8747 197.322 25.928V42.296C197.322 42.7653 197.102 43 196.662 43H194.198C193.817 43 193.626 42.8093 193.626 42.428V26.72C193.626 25.2533 193.274 24.124 192.57 23.332C191.866 22.54 190.81 22.144 189.402 22.144C188.229 22.144 187.129 22.4373 186.102 23.024C185.075 23.5813 184.078 24.2853 183.11 25.136C182.875 25.3707 182.714 25.576 182.626 25.752C182.538 25.928 182.494 26.148 182.494 26.412V42.296C182.494 42.7653 182.274 43 181.834 43H179.37C178.989 43 178.798 42.8093 178.798 42.428V26.72C178.798 23.6693 177.39 22.144 174.574 22.144C173.401 22.144 172.315 22.4227 171.318 22.98C170.35 23.508 169.133 24.4173 167.666 25.708V42.34C167.666 42.5747 167.607 42.7507 167.49 42.868C167.402 42.956 167.241 43 167.006 43H164.586ZM208.421 10.352C208.773 10.352 208.949 10.5427 208.949 10.924V42.252C208.949 42.5453 208.89 42.7507 208.773 42.868C208.656 42.956 208.45 43 208.157 43H205.385C205.121 43 204.945 42.956 204.857 42.868C204.769 42.78 204.725 42.6187 204.725 42.384V10.968C204.725 10.5573 204.901 10.352 205.253 10.352H208.421ZM216.079 26.764C216.079 23.1853 216.636 20.1347 217.751 17.612C218.865 15.0893 220.464 13.1827 222.547 11.892C224.659 10.572 227.152 9.912 230.027 9.912C232.901 9.912 235.38 10.572 237.463 11.892C239.575 13.1827 241.188 15.0893 242.303 17.612C243.417 20.1347 243.975 23.1853 243.975 26.764C243.975 33.5987 241.921 38.3947 237.815 41.152C237.697 41.24 237.639 41.372 237.639 41.548C237.639 41.9 237.903 42.3547 238.431 42.912C238.988 43.44 239.692 43.924 240.543 44.364C241.423 44.804 242.317 45.0827 243.227 45.2C243.52 45.2293 243.667 45.3613 243.667 45.596V47.664C243.667 47.9867 243.579 48.192 243.403 48.28C243.227 48.3973 242.919 48.456 242.479 48.456C241.071 48.456 239.648 48.0453 238.211 47.224C236.803 46.4027 235.453 45.0827 234.163 43.264C234.045 43.088 233.825 43.0293 233.503 43.088C232.535 43.3227 231.376 43.44 230.027 43.44C227.181 43.44 224.703 42.8093 222.591 41.548C220.508 40.2573 218.895 38.3653 217.751 35.872C216.636 33.3787 216.079 30.3427 216.079 26.764ZM220.479 26.852C220.479 31.3987 221.271 34.772 222.855 36.972C224.468 39.1427 226.859 40.228 230.027 40.228C233.195 40.228 235.571 39.128 237.155 36.928C238.768 34.728 239.575 31.3547 239.575 26.808C239.575 17.6853 236.392 13.124 230.027 13.124C223.661 13.124 220.479 17.7 220.479 26.852Z" fill="white"/>
</svg>
